<svg width="882" height="216" viewBox="0 0 882 216" fill="none" xmlns="http://www.w3.org/2000/svg">
<path d="M254.9 174V48H304.04C315.08 48 324.5 49.74 332.3 53.22C340.1 56.7 346.1 61.74 350.3 68.34C354.5 74.94 356.6 82.8 356.6 91.92C356.6 101.04 354.5 108.9 350.3 115.5C346.1 121.98 340.1 127.02 332.3 130.62C324.5 134.1 315.08 135.84 304.04 135.84H264.8L272.9 127.38V174H254.9ZM272.9 129.18L264.8 120.18H303.5C315.02 120.18 323.72 117.72 329.6 112.8C335.6 107.88 338.6 100.92 338.6 91.92C338.6 82.92 335.6 75.96 329.6 71.04C323.72 66.12 315.02 63.66 303.5 63.66H264.8L272.9 54.66V129.18ZM411.853 175.08C401.653 175.08 392.653 172.98 384.853 168.78C377.173 164.58 371.173 158.82 366.853 151.5C362.653 144.18 360.553 135.78 360.553 126.3C360.553 116.82 362.593 108.42 366.673 101.1C370.873 93.78 376.573 88.08 383.773 84C391.093 79.8 399.313 77.7 408.433 77.7C417.673 77.7 425.833 79.74 432.913 83.82C439.993 87.9 445.513 93.66 449.473 101.1C453.553 108.42 455.593 117 455.593 126.84C455.593 127.56 455.533 128.4 455.413 129.36C455.413 130.32 455.353 131.22 455.233 132.06H374.053V119.64H446.233L439.213 123.96C439.333 117.84 438.073 112.38 435.433 107.58C432.793 102.78 429.133 99.06 424.453 96.42C419.893 93.66 414.553 92.28 408.433 92.28C402.433 92.28 397.093 93.66 392.413 96.42C387.733 99.06 384.073 102.84 381.433 107.76C378.793 112.56 377.473 118.08 377.473 124.32V127.2C377.473 133.56 378.913 139.26 381.793 144.3C384.793 149.22 388.933 153.06 394.213 155.82C399.493 158.58 405.553 159.96 412.393 159.96C418.033 159.96 423.133 159 427.693 157.08C432.373 155.16 436.453 152.28 439.933 148.44L449.473 159.6C445.153 164.64 439.753 168.48 433.273 171.12C426.913 173.76 419.773 175.08 411.853 175.08ZM466.988 174V78.6H483.548V104.52L481.928 98.04C484.568 91.44 489.008 86.4 495.248 82.92C501.488 79.44 509.168 77.7 518.288 77.7V94.44C517.568 94.32 516.848 94.26 516.128 94.26C515.528 94.26 514.928 94.26 514.328 94.26C505.088 94.26 497.768 97.02 492.368 102.54C486.968 108.06 484.268 116.04 484.268 126.48V174H466.988ZM571.287 175.08C561.567 175.08 552.867 172.98 545.187 168.78C537.627 164.58 531.687 158.82 527.367 151.5C523.047 144.18 520.887 135.78 520.887 126.3C520.887 116.82 523.047 108.42 527.367 101.1C531.687 93.78 537.627 88.08 545.187 84C552.867 79.8 561.567 77.7 571.287 77.7C579.927 77.7 587.607 79.44 594.327 82.92C601.167 86.28 606.447 91.32 610.167 98.04L597.027 106.5C593.907 101.82 590.067 98.4 585.507 96.24C581.067 93.96 576.267 92.82 571.107 92.82C564.867 92.82 559.287 94.2 554.367 96.96C549.447 99.72 545.547 103.62 542.667 108.66C539.787 113.58 538.347 119.46 538.347 126.3C538.347 133.14 539.787 139.08 542.667 144.12C545.547 149.16 549.447 153.06 554.367 155.82C559.287 158.58 564.867 159.96 571.107 159.96C576.267 159.96 581.067 158.88 585.507 156.72C590.067 154.44 593.907 150.96 597.027 146.28L610.167 154.56C606.447 161.16 601.167 166.26 594.327 169.86C587.607 173.34 579.927 175.08 571.287 175.08ZM622.308 174V78.6H639.588V174H622.308ZM630.948 60.24C627.588 60.24 624.768 59.16 622.488 57C620.328 54.84 619.248 52.2 619.248 49.08C619.248 45.84 620.328 43.14 622.488 40.98C624.768 38.82 627.588 37.74 630.948 37.74C634.308 37.74 637.068 38.82 639.228 40.98C641.508 43.02 642.648 45.6 642.648 48.72C642.648 51.96 641.568 54.72 639.408 57C637.248 59.16 634.428 60.24 630.948 60.24ZM666.102 174V70.14C666.102 60.78 668.802 53.34 674.202 47.82C679.722 42.18 687.522 39.36 697.602 39.36C701.322 39.36 704.862 39.84 708.222 40.8C711.702 41.64 714.642 43.02 717.042 44.94L711.822 58.08C710.022 56.64 707.982 55.56 705.702 54.84C703.422 54 701.022 53.58 698.502 53.58C693.462 53.58 689.622 55.02 686.982 57.9C684.342 60.66 683.022 64.8 683.022 70.32V83.1L683.382 91.02V174H666.102ZM649.902 92.82V78.6H710.742V92.82H649.902ZM741.936 210C737.376 210 732.936 209.22 728.616 207.66C724.296 206.22 720.576 204.06 717.456 201.18L724.836 188.22C727.236 190.5 729.876 192.24 732.756 193.44C735.636 194.64 738.696 195.24 741.936 195.24C746.136 195.24 749.616 194.16 752.376 192C755.136 189.84 757.716 186 760.116 180.48L766.056 167.34L767.856 165.18L805.296 78.6H822.216L775.956 183.54C773.196 190.26 770.076 195.54 766.596 199.38C763.236 203.22 759.516 205.92 755.436 207.48C751.356 209.16 746.856 210 741.936 210ZM764.616 177.06L721.056 78.6H739.056L776.136 163.56L764.616 177.06Z" fill="white"/>
<path d="M54.418 30.2421C54.1287 30.4462 52.4262 33.6893 50.6345 37.4495C48.8432 41.2098 43.9002 51.3185 39.6506 59.9133C35.4004 68.5081 30.8624 77.7378 29.5659 80.4237C28.2699 83.1096 23.393 92.9985 18.7289 102.399C3.60366 132.883 0 140.209 0 140.474C0 140.617 10.9765 140.734 24.3923 140.734C38.459 140.734 48.7846 140.92 48.7846 141.172C48.7846 141.827 41.1313 170.58 35.9681 189.324C32.186 203.053 28.9544 215.205 28.8908 215.936C28.8558 216.338 30.3031 214.799 32.1067 212.518C40.2542 202.211 43.335 198.274 46.816 193.719C50.7789 188.534 53.7163 184.705 64.0601 171.988C67.3292 167.969 72.799 160.978 94.0927 133.606C96.4112 130.625 99.9828 126.12 102.03 123.595C104.076 121.069 109.379 114.388 113.813 108.748C118.247 103.107 123.059 97.0713 124.506 95.3343C125.952 93.5967 127.136 91.9959 127.136 91.7767C127.136 91.5569 118.82 91.4402 108.656 91.5164C95.2226 91.6175 90.1771 91.5056 90.1771 91.1067C90.1776 90.8049 90.7507 89.541 91.4514 88.2987L92.7257 86.0396H115.351C136.247 86.0396 139.213 86.2018 137.504 87.2483C136.967 87.5769 126.643 101.054 126.643 101.425C126.643 101.885 143.769 101.664 146.398 101.17C153.227 99.8866 157.263 95.7845 158.67 88.6972C159.16 86.2291 159.182 82.2355 158.488 79.5677C156.745 72.8691 154.383 71.1839 148.879 68.58L146.292 68.0306L144.444 67.8475L111.367 67.59L77.6119 67.4533L76.918 69.0145C76.5366 69.8735 73.7402 75.6487 70.7042 81.8482C62.8346 97.9186 60.1184 103.565 60.1184 103.855C60.1184 103.994 69.7832 104.108 81.595 104.108C95.3976 104.108 103.013 104.279 102.907 104.587C102.817 104.85 101.067 107.212 99.0194 109.837C95.1034 114.854 86.3468 126.1 75.0573 140.612C71.3482 145.38 66.0726 152.137 63.3338 155.628C60.5944 159.12 57.2914 163.459 55.9929 165.269C53.6266 168.568 52.8613 169.354 52.4301 168.926C52.303 168.8 54.5392 159.274 57.3998 147.757C60.2598 136.239 62.7942 125.992 63.0317 124.985L63.4629 123.154H46.5149C37.1931 123.154 29.5635 122.989 29.5595 122.787C29.5556 122.586 33.9723 113.411 39.3741 102.399C44.7759 91.387 51.2298 78.0919 53.7163 72.8544C56.2028 67.6169 59.7971 60.1057 61.7042 56.1623L65.1713 48.993L85.4356 48.7849C96.5812 48.6702 115.568 48.615 127.628 48.6619C152.397 48.7586 151.407 48.6262 159.905 52.9881C170.12 58.231 177.567 69.7622 178.237 81.3764C179.142 97.0259 171.536 110.862 158.427 117.418C152.917 120.173 152.138 120.254 131.473 120.231L112.404 120.209L111.36 121.316C109.381 123.411 97.5692 139.159 97.5692 139.702C97.5692 140.402 97.72 140.405 126.643 140.279C151.717 140.171 153.97 140.02 159.798 138.059C173.169 133.56 186.018 122.519 192.384 110.056C196.275 102.441 198.357 92.1131 197.95 82.4503C197.516 72.1507 194.866 64.1087 188.965 55.1774C180.589 42.5005 169.398 34.7886 153.905 31.0147C150.9 30.2826 145.455 30.1781 102.743 30.0336C76.4539 29.9447 54.7073 30.0385 54.418 30.2421Z" fill="#FFD200"/>
</svg>
